<svg width="218" height="218" viewBox="0 0 218 218" fill="none" xmlns="http://www.w3.org/2000/svg">
<rect width="218" height="218" rx="50" fill="black"/>
<g clip-path="url(#clip0_1_157)">
<path d="M175.766 128.733C173.169 124.977 170.415 121.37 169.085 116.823C167.885 112.714 164.608 109.95 161.243 107.527C158.846 105.801 156.147 106.061 153.964 108.08C152.609 109.332 151.355 110.781 150.383 112.344C149.353 114.006 147.97 114.824 146.261 115.273C145.383 115.503 144.479 114.869 144.153 114.021C142.996 111.007 140.882 108.731 138.503 106.628C138.009 106.191 137.596 105.553 137.377 104.928C135.176 98.626 130.638 94.7169 124.731 91.9602C121.085 90.2605 117.572 88.2155 114.207 86.0112C111.868 84.4791 110.427 82.3191 110.269 79.7054C110.214 78.7996 110.939 77.6243 111.801 77.3366C114.286 76.5065 116.381 77.8544 118.427 79.1169C120.771 80.5618 123.345 81.7076 124.442 84.6583C125.949 88.7136 130.856 90.4183 134.921 90.4249C138.957 90.4314 140.298 87.7569 142.442 85.6495C143.581 84.5317 143.821 83.261 142.952 81.8522C142.541 81.1914 142.225 80.4583 141.737 79.8632C138.009 75.3229 135.507 70.0675 132.919 64.8615C132.714 64.4456 132.278 63.9722 132.355 63.6138C133.314 59.2231 130.181 57.1502 127.475 54.8226C127.419 54.7732 127.373 54.7108 127.335 54.6434C127.271 54.5349 127.766 53.9332 128.568 53.5091C130.412 52.536 131.915 53.136 133.322 55.3732C133.805 56.1426 134.241 56.2001 134.394 55.4341C134.489 54.9557 134.552 54.4823 134.481 54.0302C134.251 52.5524 133.268 51.7798 130.646 51.0319C129.773 50.7836 129.447 50.0028 129.932 49.2368C131.331 47.034 132.707 44.8592 134.083 42.691C134.57 41.925 134.803 41.1787 134.606 41.0241C134.409 40.8696 133.633 41.1441 132.868 41.6373C132.442 41.9168 132.002 42.2028 131.53 42.5069C130.769 43 130.195 42.6663 130.169 41.7589C130.102 39.3951 129.554 37.4422 127.825 36.2833C127.07 35.7787 126.558 36.2866 126.821 37.1562C127.098 38.0735 127.381 39.0022 127.665 39.9359C127.93 40.8039 127.968 41.5896 127.749 41.6883C127.529 41.7869 127.103 41.1721 126.692 40.3617C125.119 37.2581 122.66 35.3776 119.062 34.8926C118.162 34.771 117.987 35.2444 118.682 35.828C118.871 35.9874 119.06 36.1469 119.251 36.3047C119.946 36.8882 120.045 37.9337 119.474 38.6373C119.139 39.0499 118.805 39.4625 118.455 39.8915C117.883 40.5967 117.285 40.4406 116.974 39.5874C115.991 36.8899 114.102 35.2345 111.686 34.1743C110.854 33.8093 110.553 34.2088 111.056 34.9633C111.382 35.4548 111.71 35.948 112.041 36.4444C112.544 37.2006 112.817 37.9255 112.646 38.0636C112.476 38.2017 111.725 37.9091 110.969 37.4061C110.168 36.8734 109.365 36.3441 108.551 35.8296C105.296 33.7847 101.87 33.3375 98.3278 34.9732C96.6856 35.7293 95.198 35.8395 93.4489 35.1458C90.5985 34.0148 87.9601 34.4784 85.4878 36.1995C84.7415 36.7173 83.7914 36.6006 83.147 35.9611C81.49 34.314 79.4023 33.6186 76.9809 33.7238C76.2248 33.7567 75.4226 33.8537 74.7321 34.1381C70.4779 35.8822 68.7075 35.4384 65.8505 31.7973C65.6812 31.5819 65.5135 31.3666 65.3294 31.1299C65.0417 30.7616 64.8149 31.2022 64.9398 32.1014C65.6433 37.1759 69.0856 39.0367 74.9722 38.1819C78.2483 37.7052 79.8971 38.3611 80.3508 40.5688C80.5333 41.4581 80.3935 42.2389 80.2867 42.2833C80.2078 42.3162 80.1338 42.3392 80.0878 42.3129C74.885 39.2965 73.2626 39.52 68.4182 43.3765C67.7984 43.8713 66.9732 44.108 66.1266 44.32C65.2455 44.5387 64.5666 44.011 64.6012 43.1036C64.6307 42.3409 64.662 41.5781 64.7014 40.817C64.708 40.6724 64.759 40.5294 64.8543 40.2335C64.9562 39.9162 64.4713 40.1332 63.7677 40.7102C63.2302 41.1507 62.7748 41.5387 62.3918 41.9891C60.4225 44.302 60.8811 46.6083 63.6576 47.8116C64.8921 48.3458 66.2138 48.6828 67.6143 49.056C68.4921 49.2894 68.479 49.6494 67.5897 49.8302C66.6132 50.0291 65.6729 50.2231 64.7475 50.4697C59.3392 51.9047 57.125 54.5875 56.6713 60.17C56.4247 63.1946 55.4351 63.987 52.366 64.1382C50.8669 64.2122 49.2559 64.4883 47.9392 65.1557C46.2625 66.004 45.2646 67.6544 45.6625 69.627C45.937 70.9864 46.7918 71.6571 47.8603 71.9974C48.7249 72.2736 49.1688 71.7525 48.794 71.0785C48.4192 70.4045 48.7479 69.5399 49.5337 69.1601C50.0269 68.9201 50.5249 68.7245 51.0312 68.69C52.0784 68.621 53.1354 68.7327 54.1956 68.856C55.0981 68.9612 55.6965 69.7568 55.5419 70.6511C55.3529 71.7492 55.1573 72.844 54.8499 73.9075C54.6 74.7706 54 75.5711 53.423 76.2911C51.0115 79.2961 47.8619 79.3799 45.2646 76.5328C44.977 76.2171 44.714 75.8818 44.4542 75.5349C44.0268 74.9678 43.5797 75.2391 43.5978 76.1465C43.6537 79.0807 44.9359 81.1536 47.4592 82.421C48.2696 82.8287 48.5885 83.6654 48.0592 84.4018C47.0712 85.7777 46.0175 87.1438 45.7627 88.6462C45.5079 90.1388 46.0948 91.7728 46.6142 93.4775C46.8789 94.3454 46.5452 95.6556 45.692 95.9712C44.4 96.4512 43.2526 95.7361 42.817 93.7421C42.5474 92.5109 42.5161 91.2271 42.4816 89.9432C42.457 89.0358 41.9178 88.8534 41.4937 89.6572C40.1096 92.2923 40.0783 95.9663 41.6055 98.1937C43.0685 100.327 45.3288 100.526 47.6499 98.6917C49.2148 97.4539 50.8011 96.3312 52.9743 96.5252C53.8784 96.6057 54.1447 97.1416 53.6203 97.4638C53.2718 97.6775 52.9677 97.86 52.6537 98.0194C50.5644 99.0846 49.2329 100.569 49.251 103.115C49.2658 105.071 48.383 106.508 46.2592 106.993C43.7753 107.559 42.2055 109.581 42.3929 111.76C42.5359 113.422 43.6372 114.576 45.7315 115.145C46.6077 115.383 46.9973 115.053 46.5649 114.57C46.2888 114.261 46.0389 113.975 45.8038 113.675C44.3688 111.851 44.8931 110.286 47.2175 110.138C48.5967 110.049 50.1238 110.499 51.4126 111.085C54.2745 112.382 54.8515 112.237 55.7639 109.357C56.5956 106.727 58.422 105.801 60.7825 107.159C62.6729 108.247 64.4203 108.56 66.0379 107.85C66.8697 107.485 67.3381 107.698 67.2494 108.601C67.0209 110.917 66.8088 113.256 66.4883 115.579C66.0461 118.77 64.4894 120.057 61.8083 119.519C60.9173 119.342 60.3847 119.795 60.8959 120.547C61.537 121.489 62.5053 121.773 64.3875 121.625C65.2916 121.554 65.7781 122.123 65.4675 122.975C65.1518 123.844 64.8494 124.692 64.6291 125.562C63.7513 129.024 64.7129 130.747 67.5321 130.89C68.4379 130.936 68.719 130.242 68.1568 129.53C67.7458 129.007 67.3809 128.468 67.2543 127.876C66.9979 126.68 67.2198 125.227 67.6817 124.064C68.936 120.915 71.456 119.891 74.6878 121.132C77.4626 122.197 80.1157 122.659 82.6834 121.153C83.4675 120.695 83.8177 120.565 83.5793 121.032C83.4346 121.314 83.2801 121.592 83.0993 121.849C79.3744 127.115 75.9009 132.596 70.6406 136.566C67.6949 138.79 64.5502 140.457 60.868 141.285C59.714 141.543 58.5814 141.836 57.4718 142.161C56.6006 142.418 56.3228 143.255 56.8504 143.993C66.4784 157.448 78.9601 168.637 93.3848 176.651C94.1788 177.091 95.5333 177.225 96.4013 176.962C102.398 175.139 108.388 173.255 114.221 170.991C119.795 168.83 124.478 165.129 128.219 160.395C131.69 156.004 135.133 151.589 138.444 147.077C139.276 145.946 140.08 145.566 141.344 145.801C143.974 146.288 146.351 145.878 148.687 144.392C150.937 142.962 153.814 143.953 155.464 146.641C156.471 148.278 157.125 150.144 157.846 151.944C159.033 154.905 160.194 157.873 161.279 160.872C162.155 163.29 161.489 164.445 158.949 164.74C157.664 164.889 156.329 164.62 155.017 164.524C153.275 164.398 152.593 164.901 153.11 166.842C153.362 167.784 153.068 169.186 152.464 169.933C152.055 170.439 150.625 170.417 149.754 170.207C145.302 169.134 145.016 168.966 143.318 173.205C141.806 176.985 140.984 181.048 140.007 185.025C139.871 185.579 139.922 186.179 140.014 186.839C140.134 187.739 140.905 188.212 141.76 187.905C146.021 186.379 150.061 185.059 152.589 181.015C153.083 180.228 154.49 179.84 155.547 179.623C156.231 179.485 156.946 179.493 157.703 179.521C158.611 179.556 159.304 180.034 159.254 180.606C159.203 181.178 159.318 181.596 159.515 181.553C159.666 181.518 159.786 181.485 159.839 181.403C162.947 176.653 168.738 173.955 170.151 167.881C170.305 167.214 171.321 166.765 171.535 166.088C172.297 163.67 172.96 161.22 173.353 158.761C173.496 157.865 174.14 156.663 174.837 156.083C174.924 156.011 175.01 155.939 175.099 155.866C175.797 155.284 176.581 155.417 176.852 156.157C177.122 156.897 177.6 156.808 177.928 155.962C179.491 151.926 181.074 148.206 182.188 144.351C183.106 141.185 182.146 138.003 180.324 135.223C178.878 133.012 177.268 130.908 175.766 128.733ZM169.108 142.304C168.977 142.385 168.852 142.477 168.722 142.561C166.978 143.694 166.329 144.91 167.58 147.009C168.009 147.729 168.092 148.656 168.145 149.6C168.198 150.506 168.037 151.272 167.737 151.313C167.441 151.355 167.086 150.662 166.897 149.774C166.498 147.902 166.008 146.023 166.222 144.226C166.846 138.946 165.191 134.407 162.604 130.079C160.952 127.314 158.397 126.404 155.377 127.566C153.451 128.307 151.68 129.502 149.925 130.622C148.927 131.26 147.932 131.536 146.903 131.47C145.998 131.414 145.966 130.781 146.828 130.502C147.495 130.286 148.163 130.096 148.779 129.801C150.217 129.114 151.804 128.421 152.849 127.288C156.053 123.821 159.245 123.607 162.503 127.041C165.069 129.746 167.55 132.529 170.063 135.28C173.788 139.364 173.775 139.472 169.108 142.304Z" fill="#FFDE21"/>
<path d="M130.078 119.864L118.321 108.255L91.9765 82.2248L92.2012 120.089L71.2247 120.214L92.3257 141.069L113.123 119.965L130.078 119.864Z" fill="black"/>
</g>
<defs>
<clipPath id="clip0_1_157">
<rect width="157" height="157" fill="white" transform="translate(33 31)"/>
</clipPath>
</defs>
</svg>
